<svg width="84" height="84" viewBox="0 0 84 84" fill="none" xmlns="http://www.w3.org/2000/svg">
<path d="M23.9999 22.5938C23.2232 22.5938 22.5936 23.2233 22.5936 24C22.5936 24.7767 23.2232 25.4062 23.9999 25.4062L23.9999 22.5938ZM28.9999 24L30.3641 23.6589C30.2076 23.0329 29.6452 22.5938 28.9999 22.5938L28.9999 24ZM55.9999 51.4062C56.7765 51.4062 57.4061 50.7766 57.4061 50C57.4061 49.2233 56.7765 48.5937 55.9999 48.5937V51.4062ZM59.9999 28L61.3641 28.3411C61.4692 27.921 61.3748 27.4759 61.1083 27.1346C60.8418 26.7933 60.4329 26.5937 59.9999 26.5937V28ZM55.9999 44V45.4062C56.6452 45.4062 57.2076 44.9671 57.3641 44.3411L55.9999 44ZM23.9999 25.4062L28.9999 25.4062L28.9999 22.5938L23.9999 22.5938L23.9999 25.4062ZM27.6356 24.3411L28.6356 28.3411L31.3641 27.6589L30.3641 23.6589L27.6356 24.3411ZM28.6356 28.3411L32.6356 44.3411L35.3641 43.6589L31.3641 27.6589L28.6356 28.3411ZM33.9999 42.5937H32.9999V45.4062H33.9999V42.5937ZM32.9999 51.4062H55.9999V48.5937H32.9999V51.4062ZM28.5936 47C28.5936 49.4335 30.5664 51.4062 32.9999 51.4062V48.5937C32.1197 48.5937 31.4061 47.8802 31.4061 47H28.5936ZM32.9999 42.5937C30.5664 42.5937 28.5936 44.5665 28.5936 47H31.4061C31.4061 46.1198 32.1197 45.4062 32.9999 45.4062V42.5937ZM29.9999 29.4062H59.9999V26.5937H29.9999V29.4062ZM58.6356 27.6589L54.6356 43.6589L57.3641 44.3411L61.3641 28.3411L58.6356 27.6589ZM55.9999 42.5937H33.9999V45.4062H55.9999V42.5937ZM54.5936 58C54.5936 58.3279 54.3278 58.5937 53.9999 58.5937V61.4062C55.8811 61.4062 57.4061 59.8812 57.4061 58H54.5936ZM53.9999 58.5937C53.672 58.5937 53.4061 58.3279 53.4061 58H50.5936C50.5936 59.8812 52.1187 61.4062 53.9999 61.4062V58.5937ZM53.4061 58C53.4061 57.6721 53.672 57.4062 53.9999 57.4062V54.5937C52.1187 54.5937 50.5936 56.1188 50.5936 58H53.4061ZM53.9999 57.4062C54.3278 57.4062 54.5936 57.6721 54.5936 58H57.4061C57.4061 56.1188 55.8811 54.5937 53.9999 54.5937V57.4062ZM34.5936 58C34.5936 58.3279 34.3278 58.5937 33.9999 58.5937V61.4062C35.8811 61.4062 37.4061 59.8812 37.4061 58H34.5936ZM33.9999 58.5937C33.672 58.5937 33.4061 58.3279 33.4061 58H30.5936C30.5936 59.8812 32.1187 61.4062 33.9999 61.4062V58.5937ZM33.4061 58C33.4061 57.6721 33.672 57.4062 33.9999 57.4062V54.5937C32.1187 54.5937 30.5936 56.1188 30.5936 58H33.4061ZM33.9999 57.4062C34.3278 57.4062 34.5936 57.6721 34.5936 58H37.4061C37.4061 56.1188 35.8811 54.5937 33.9999 54.5937V57.4062Z" fill="black"/>
<rect x="0.749969" y="0.75" width="82.5" height="82.5" rx="8.25" stroke="black" stroke-opacity="0.2" stroke-width="1.5"/>
</svg>
